<svg id="visual" viewBox="0 0 900 600" width="900" height="600" xmlns="http://www.w3.org/2000/svg" xmlns:xlink="http://www.w3.org/1999/xlink" version="1.1"><rect x="0" y="0" width="900" height="600" fill="#ffffff"></rect><path d="M0 451L21.5 447.7C43 444.3 86 437.7 128.8 436.2C171.7 434.7 214.3 438.3 257.2 435.8C300 433.3 343 424.7 385.8 413.8C428.7 403 471.3 390 514.2 391.7C557 393.3 600 409.7 642.8 423.2C685.7 436.7 728.3 447.3 771.2 461C814 474.7 857 491.3 878.5 499.7L900 508L900 601L878.5 601C857 601 814 601 771.2 601C728.3 601 685.7 601 642.8 601C600 601 557 601 514.2 601C471.3 601 428.7 601 385.8 601C343 601 300 601 257.2 601C214.3 601 171.7 601 128.8 601C86 601 43 601 21.5 601L0 601Z" fill="#0066FF" stroke-linecap="round" stroke-linejoin="miter"></path></svg>